<svg width="23" height="23" viewBox="0 0 23 23" fill="none" xmlns="http://www.w3.org/2000/svg">
<path d="M14.1439 11.5L22.2064 3.45626C22.5594 3.10319 22.7578 2.62433 22.7578 2.12501C22.7578 1.6257 22.5594 1.14683 22.2064 0.793762C21.8533 0.440693 21.3744 0.24234 20.8751 0.24234C20.3758 0.24234 19.897 0.440693 19.5439 0.793762L11.5001 8.85626L3.45638 0.793762C3.10331 0.440693 2.62445 0.24234 2.12513 0.24234C1.62581 0.24234 1.14695 0.440693 0.79388 0.793762C0.44081 1.14683 0.242458 1.6257 0.242458 2.12501C0.242458 2.62433 0.44081 3.10319 0.79388 3.45626L8.85638 11.5L0.79388 19.5438C0.618139 19.7181 0.47865 19.9254 0.383459 20.1539C0.288267 20.3824 0.239258 20.6275 0.239258 20.875C0.239258 21.1225 0.288267 21.3676 0.383459 21.5961C0.47865 21.8246 0.618139 22.032 0.79388 22.2063C0.968185 22.382 1.17556 22.5215 1.40405 22.6167C1.63253 22.7119 1.87761 22.7609 2.12513 22.7609C2.37265 22.7609 2.61773 22.7119 2.84621 22.6167C3.0747 22.5215 3.28207 22.382 3.45638 22.2063L11.5001 14.1438L19.5439 22.2063C19.7182 22.382 19.9256 22.5215 20.154 22.6167C20.3825 22.7119 20.6276 22.7609 20.8751 22.7609C21.1227 22.7609 21.3677 22.7119 21.5962 22.6167C21.8247 22.5215 22.0321 22.382 22.2064 22.2063C22.3821 22.032 22.5216 21.8246 22.6168 21.5961C22.712 21.3676 22.761 21.1225 22.761 20.875C22.761 20.6275 22.712 20.3824 22.6168 20.1539C22.5216 19.9254 22.3821 19.7181 22.2064 19.5438L14.1439 11.5Z" fill="white"/>
</svg>
